<svg width="173" height="80" viewBox="0 0 173 80">
  <path d="M147.949 79.7146C165.177 78.4716 172.947 68.1958 172.947 57.9984C172.947 45.0556 161 31.6662 141.003 31.6662C139.367 31.6662 137.688 31.7567 135.989 31.9317C135.52 24.5401 130.044 18.0657 122.28 16.2313C120.847 15.8934 119.383 15.7185 117.919 15.7185C116.138 15.7185 114.357 15.9779 112.639 16.4727C110.218 6.89681 101.148 0 90.354 0C89.1688 0 87.9582 0.0844754 86.7476 0.241358C82.9383 0.748211 77.8614 3.11956 75.1867 5.62968C72.3662 8.28463 70.2746 11.543 69.1083 15.0487C65.8568 13.335 62.3328 12.2007 58.5806 11.6636C57.0848 11.4525 55.5572 11.3438 54.0424 11.3438C41.2266 11.3438 29.5135 18.9466 24.8993 30.2603C23.5366 33.6031 22.8204 37.0606 22.7633 40.5784C22.4845 40.5663 22.2056 40.5663 21.9267 40.5663C14.118 40.5663 7.48826 44.1203 3.7297 50.3111C0.110587 56.2848 0.0155142 63.5436 3.48251 69.2638C5.68187 72.8902 11.1454 78.7613 23.6697 79.7207H147.949V79.7146ZM21.9267 42.9195C23.0169 42.9195 24.1514 42.998 25.324 43.1609C25.0071 39.2207 25.5775 35.1297 27.2128 31.1111C31.5101 20.5698 42.3928 13.7031 54.0424 13.7031C55.4241 13.7031 56.8185 13.7997 58.213 13.9988C62.9349 14.6746 67.1625 16.3822 70.7373 18.8199C71.3521 14.7832 73.3803 10.6499 76.9297 7.31316C79.2431 5.1349 83.87 3.01095 87.0962 2.58253C88.2117 2.43169 89.2955 2.36531 90.3604 2.36531C101.611 2.36531 109.793 10.3844 110.719 19.7733C112.912 18.6872 115.377 18.0898 117.932 18.0898C119.174 18.0898 120.435 18.2346 121.69 18.5303C129.404 20.3586 134.329 27.3459 133.447 34.6651C136.097 34.2367 138.619 34.0315 141.009 34.0315C176.142 34.0315 182.974 77.4941 144.406 77.4941H27.2825C-6.15156 77.4941 -1.11903 42.9195 21.9267 42.9195Z" />
</svg>